<svg width="24" height="24" viewBox="0 0 24 24" fill="none" xmlns="http://www.w3.org/2000/svg">
<path d="M9.3 12.7999C8.9 12.7999 8.4 12.5999 8.4 12.1999C8.4 11.7999 8.9 11.8999 9.3 11.1999C9.3 11.1999 11.1 6.29993 7.5 6.29993C3.9 6.29993 5.7 11.1999 5.7 11.1999C6.1 11.8999 6.6 11.7999 6.6 12.1999C6.6 12.5999 6.1 12.7999 5.7 12.7999C5.1 12.8999 4.6 12.7999 4 13.3999V19.0999H9C9.2 17.3999 9.7 13.8999 10.1 12.9999L10.2 12.8999C10 12.7999 9.7 12.7999 9.3 12.7999Z" fill="#000" fill-opacity="1"/>
<path d="M20 12.6C19.3 11.8 18.7 11.9 18 11.8C17.5 11.7 16.9 11.6 16.9 11.1C16.9 10.6 17.5 10.8 18 9.9C18 9.9 20.1 4 15.8 4C11.4 4.1 13.5 10 13.5 10C14 10.8 14.6 10.7 14.6 11.1C14.6 11.6 14 11.7 13.5 11.8C12.6 11.9 11.8 11.8 11 13.3C10.6 14.2 10 19.1 10 19.1H20V12.6Z" fill="#000" fill-opacity="1"/>
</svg>
